<svg id="visual" viewBox="0 0 900 450" width="900" height="450" xmlns="http://www.w3.org/2000/svg" xmlns:xlink="http://www.w3.org/1999/xlink" version="1.1"><path d="M0 91L13.7 102.3C27.3 113.7 54.7 136.3 82 138.7C109.3 141 136.7 123 163.8 128.2C191 133.3 218 161.7 245.2 185.7C272.3 209.7 299.7 229.3 327 225.7C354.3 222 381.7 195 409 174C436.3 153 463.7 138 491 150.7C518.3 163.3 545.7 203.7 573 224.7C600.3 245.7 627.7 247.3 654.8 221.2C682 195 709 141 736.2 129.7C763.3 118.3 790.7 149.7 818 151.8C845.3 154 872.7 127 886.3 113.5L900 100L900 0L886.3 0C872.7 0 845.3 0 818 0C790.7 0 763.3 0 736.2 0C709 0 682 0 654.8 0C627.7 0 600.3 0 573 0C545.7 0 518.3 0 491 0C463.7 0 436.3 0 409 0C381.7 0 354.3 0 327 0C299.7 0 272.3 0 245.2 0C218 0 191 0 163.8 0C136.7 0 109.3 0 82 0C54.7 0 27.3 0 13.7 0L0 0Z" fill="#1e40af"></path><path d="M0 181L13.7 194.5C27.3 208 54.7 235 82 247.8C109.3 260.7 136.7 259.3 163.8 265.3C191 271.3 218 284.7 245.2 294.3C272.3 304 299.7 310 327 309.3C354.3 308.7 381.7 301.3 409 293.8C436.3 286.3 463.7 278.7 491 280.8C518.3 283 545.7 295 573 302.5C600.3 310 627.7 313 654.8 298C682 283 709 250 736.2 247.8C763.3 245.7 790.7 274.3 818 281.8C845.3 289.3 872.7 275.7 886.3 268.8L900 262L900 98L886.3 111.5C872.7 125 845.3 152 818 149.8C790.7 147.7 763.3 116.3 736.2 127.7C709 139 682 193 654.8 219.2C627.7 245.3 600.3 243.7 573 222.7C545.7 201.7 518.3 161.3 491 148.7C463.7 136 436.3 151 409 172C381.7 193 354.3 220 327 223.7C299.7 227.3 272.3 207.7 245.2 183.7C218 159.7 191 131.3 163.8 126.2C136.7 121 109.3 139 82 136.7C54.7 134.3 27.3 111.7 13.7 100.3L0 89Z" fill="#8599d8"></path><path d="M0 451L13.7 451C27.3 451 54.7 451 82 451C109.3 451 136.7 451 163.8 451C191 451 218 451 245.2 451C272.3 451 299.7 451 327 451C354.3 451 381.7 451 409 451C436.3 451 463.7 451 491 451C518.3 451 545.7 451 573 451C600.3 451 627.7 451 654.8 451C682 451 709 451 736.2 451C763.3 451 790.7 451 818 451C845.3 451 872.7 451 886.3 451L900 451L900 260L886.3 266.8C872.7 273.7 845.3 287.3 818 279.8C790.7 272.3 763.3 243.7 736.2 245.8C709 248 682 281 654.8 296C627.7 311 600.3 308 573 300.5C545.7 293 518.3 281 491 278.8C463.7 276.7 436.3 284.3 409 291.8C381.7 299.3 354.3 306.7 327 307.3C299.7 308 272.3 302 245.2 292.3C218 282.7 191 269.3 163.8 263.3C136.7 257.3 109.3 258.7 82 245.8C54.7 233 27.3 206 13.7 192.5L0 179Z" fill="#f3f4f6"></path></svg>