<svg id="visual" viewBox="0 0 900 450" width="900" height="450" xmlns="http://www.w3.org/2000/svg" xmlns:xlink="http://www.w3.org/1999/xlink" version="1.1"><rect x="0" y="0" width="900" height="450" fill="#f3f4f6"></rect><path d="M0 141L25 168.2C50 195.3 100 249.7 150 247C200 244.3 250 184.7 300 177.5C350 170.3 400 215.7 450 223.5C500 231.3 550 201.7 600 200C650 198.3 700 224.7 750 217.2C800 209.7 850 168.3 875 147.7L900 127L900 0L875 0C850 0 800 0 750 0C700 0 650 0 600 0C550 0 500 0 450 0C400 0 350 0 300 0C250 0 200 0 150 0C100 0 50 0 25 0L0 0Z" fill="#1E40AF" stroke-linecap="round" stroke-linejoin="miter"></path></svg>